<svg xmlns="http://www.w3.org/2000/svg" width="62" height="62" viewBox="0 0 62 62"><defs><style>.a{fill:rgba(255,255,255,0);}.b,.d{fill:#08bbe9;}.c{fill:#5a3fe7;}.d{opacity:0.47;}</style></defs><g transform="translate(941.197 -3567.803)"><rect class="a" width="62" height="62" transform="translate(-941.197 3567.803)"/><g transform="translate(-925.046 3572.627)"><path class="b" d="M17.629.6a3.2,3.2,0,0,1,3.733,0L37.652,12.3c2.526,1.814,1.8,6.025-1.867,5.8H3.207A3.2,3.2,0,0,1,1.34,12.3Z" transform="translate(0 52.223) rotate(-90)"/><path class="c" d="M17.629.6a3.2,3.2,0,0,1,3.733,0L37.652,12.3a3.2,3.2,0,0,1-1.867,5.8H3.207A3.2,3.2,0,0,1,1.34,12.3Z" transform="translate(29.601 0) rotate(90)"/><path class="d" d="M17.629.6a3.2,3.2,0,0,1,3.733,0L37.652,12.3c2.526,1.814.992,5.8-2.118,5.8H3.207A3.2,3.2,0,0,1,1.34,12.3Z" transform="translate(0.136 52.446) rotate(-90)"/></g></g></svg>