<svg xmlns="http://www.w3.org/2000/svg" width="95.576" height="55.473" viewBox="0 0 95.576 55.473"><defs><style>.a,.c{fill:#08bbe9;}.b{fill:#5a3fe7;}.c{opacity:0.47;}.d{fill:#5d5b64;}</style></defs><g transform="translate(-103.5 -4229.817)"><g transform="translate(1 2)"><path class="a" d="M22.84,1.256a3,3,0,0,1,3.5,0L41.607,12.217a3,3,0,0,1-1.75,5.437H9.323a3,3,0,0,1-1.75-5.437Z" transform="translate(102.5 4283.29) rotate(-90)"/><path class="b" d="M22.84,1.256a3,3,0,0,1,3.5,0L41.607,12.217a3,3,0,0,1-1.75,5.437H9.323a3,3,0,0,1-1.75-5.437Z" transform="translate(131.503 4221.5) rotate(90)"/><path class="c" d="M22.84,1.256a3,3,0,0,1,3.5,0L41.607,12.217a3,3,0,0,1-1.75,5.437H9.323a3,3,0,0,1-1.75-5.437Z" transform="translate(102.5 4283.29) rotate(-90)"/></g><path class="d" d="M1.863-1.485A1.327,1.327,0,0,0,3.348,0H8.721c6.075,0,9.963-3.618,9.963-9.693S14.8-19.305,8.721-19.305H3.348A1.327,1.327,0,0,0,1.863-17.82ZM6.588-4.05v-11.2H8.532c3.186,0,5.265,1.89,5.265,5.562,0,3.7-2,5.643-5.265,5.643ZM22.221-15.66h1.593A1.327,1.327,0,0,0,25.3-17.145v-.675a1.327,1.327,0,0,0-1.485-1.485H22.221a1.327,1.327,0,0,0-1.485,1.485v.675A1.327,1.327,0,0,0,22.221-15.66ZM20.682-1.485A1.327,1.327,0,0,0,22.167,0h1.7a1.327,1.327,0,0,0,1.485-1.485V-12.42a1.327,1.327,0,0,0-1.485-1.485h-1.7a1.327,1.327,0,0,0-1.485,1.485Zm7.425,0A1.327,1.327,0,0,0,29.592,0h1.7a1.327,1.327,0,0,0,1.485-1.485V-6.291c0-1.971.945-3.7,3.024-3.7,1.026,0,1.539.54,1.539,1.836v6.669A1.327,1.327,0,0,0,38.826,0h1.7a1.327,1.327,0,0,0,1.485-1.485V-9.018c0-3.915-2.187-5.211-5-5.211a4.906,4.906,0,0,0-4.428,2.4h-.054s.027-.216.027-.351v-.243A1.308,1.308,0,0,0,31.1-13.905H29.592a1.327,1.327,0,0,0-1.485,1.485ZM45.819-5.994h4.05v4.509A1.327,1.327,0,0,0,51.354,0h.7a1.327,1.327,0,0,0,1.485-1.485V-5.994h4.05a1.327,1.327,0,0,0,1.485-1.485v-.54A1.327,1.327,0,0,0,57.591-9.5h-4.05V-14.04a1.327,1.327,0,0,0-1.485-1.485h-.7a1.327,1.327,0,0,0-1.485,1.485V-9.5h-4.05a1.327,1.327,0,0,0-1.485,1.485v.54A1.327,1.327,0,0,0,45.819-5.994Z" transform="translate(140 4259)"/></g></svg>